<svg width="164" height="68" viewBox="0 0 164 68" fill="none" xmlns="http://www.w3.org/2000/svg">
<path d="M61.3257 60.2119C59.7121 62.7177 61.526 66.004 64.523 66.004H158.806C161.804 66.004 163.617 62.7177 162.004 60.2119L125.296 3.19703C123.804 0.879634 120.394 0.879634 118.902 3.19703L112.34 13.3882C112.024 13.8795 111.306 13.8795 110.989 13.3882L104.428 3.19703C102.936 0.879634 99.5251 0.879634 98.0331 3.19703L61.3257 60.2119Z" fill="white"/>
<path d="M5.43913 1.99512C2.44203 1.99512 0.628091 5.2814 2.24171 7.78724L38.9492 64.8021C40.4412 67.1195 43.8519 67.1195 45.344 64.8021L82.0515 7.78724C83.665 5.2814 81.8512 1.99512 78.854 1.99512H5.43913Z" fill="white"/>
</svg>
